<svg width="355" height="60" viewBox="0 0 355 60" fill="none" xmlns="http://www.w3.org/2000/svg">
<g clip-path="url(#clip0_142_18275)">
<mask id="mask0_142_18275" style="mask-type:luminance" maskUnits="userSpaceOnUse" x="0" y="0" width="355" height="60">
<path d="M355 0H0V60H355V0Z" fill="white"/>
</mask>
<g mask="url(#mask0_142_18275)">
<path fill-rule="evenodd" clip-rule="evenodd" d="M162.185 56.5741L154.042 43.0225C153.464 42.0149 152.623 41.2089 151.572 40.6044C150.627 39.9998 149.576 39.6472 148.473 39.5968H54.9023L52.8533 36.2215H62.8881C63.9914 36.1711 65.0947 35.8185 65.9879 35.2139C66.9861 34.6598 67.8792 33.8034 68.4572 32.7958L86.1625 3.4759C86.4777 2.97212 86.6353 2.36759 86.6879 1.76305C86.6879 0.654742 86.0049 0.100586 84.6389 0.100586H35.3581C34.2548 0.150964 33.2041 0.503609 32.2584 1.10814C31.2602 1.71268 30.4196 2.51872 29.8416 3.52628L0.893148 54.1056C0.315229 55.0628 0 56.1711 0 57.2794C0 58.69 1.1033 59.8487 2.57437 59.9998H20.2797C21.1203 59.9998 21.9084 59.3953 22.6439 58.1862L30.5772 43.7278L38.3528 56.5741C38.9307 57.5817 39.7713 58.3877 40.8221 58.9923C41.7678 59.5968 42.8186 59.9495 43.9219 59.9998H160.714C162.028 59.9998 162.711 59.4457 162.711 58.287C162.658 57.6824 162.5 57.1283 162.185 56.5741ZM43.3965 31.9394C42.5033 32.5439 41.4 32.8966 40.2967 32.9469C38.9307 32.9469 38.2477 32.3928 38.2477 31.2845C38.3003 30.6799 38.5104 30.0754 38.8257 29.622L52.433 6.90159C53.0109 5.89404 53.8516 5.08799 54.9023 4.48346C55.848 3.87892 56.8988 3.52628 58.0021 3.4759C59.3155 3.4759 59.9985 4.03006 59.9985 5.18875C59.946 5.79328 59.7884 6.34744 59.4731 6.90159L45.8658 29.5716C45.2353 30.5288 44.3947 31.3348 43.3965 31.9394Z" fill="white"/>
</g>
<mask id="mask1_142_18275" style="mask-type:luminance" maskUnits="userSpaceOnUse" x="0" y="0" width="355" height="60">
<path d="M355 0H0V60H355V0Z" fill="white"/>
</mask>
<g mask="url(#mask1_142_18275)">
<path fill-rule="evenodd" clip-rule="evenodd" d="M173.166 0H123.885C122.782 0.0503778 121.678 0.403023 120.785 1.00756C119.787 1.61209 118.894 2.41814 118.316 3.42569L114.218 10.1763C113.903 10.6801 113.745 11.2846 113.692 11.8892C113.692 12.9975 114.375 13.5516 115.741 13.602H133.394C134.498 13.5516 135.548 13.199 136.441 12.6448C137.44 12.0907 138.333 11.2343 138.911 10.2771L140.96 6.90176C141.59 5.94458 142.431 5.08816 143.429 4.48363C144.322 3.87909 145.373 3.52645 146.476 3.47607C147.79 3.47607 148.473 4.03023 148.473 5.18892C148.473 5.79345 148.315 6.34761 148 6.90176L143.954 13.5516C143.324 14.5088 142.483 15.3149 141.433 15.9194C140.539 16.5239 139.436 16.8766 138.333 16.927H113.692C112.589 16.9773 111.538 17.33 110.593 17.9345C109.594 18.539 108.701 19.3451 108.071 20.3526L99.9275 33.9043C99.6123 34.4081 99.4546 35.0126 99.4021 35.6171C99.4021 36.7254 100.085 37.33 101.451 37.33H150.784C151.888 37.2796 152.938 36.927 153.832 36.3224C154.882 35.7683 155.723 34.9118 156.301 33.9043L174.637 3.47607C174.952 2.97229 175.11 2.36776 175.162 1.76322C175.11 0.554156 174.479 0 173.166 0ZM137.807 23.6776L133.709 30.4786C133.132 31.4861 132.291 32.2922 131.24 32.8463C130.295 33.4509 129.244 33.8035 128.14 33.8539C126.827 33.8539 126.144 33.2997 126.144 32.1411C126.197 31.5365 126.354 30.9824 126.669 30.4282L130.767 23.6776C131.345 22.7204 132.186 21.864 133.184 21.2594C134.077 20.6549 135.181 20.3023 136.284 20.3023C137.65 20.3023 138.333 20.8564 138.333 21.9647C138.333 22.6196 138.123 23.1738 137.807 23.6776Z" fill="white"/>
</g>
<mask id="mask2_142_18275" style="mask-type:luminance" maskUnits="userSpaceOnUse" x="0" y="0" width="355" height="60">
<path d="M355 0H0V60H355V0Z" fill="white"/>
</mask>
<g mask="url(#mask2_142_18275)">
<path fill-rule="evenodd" clip-rule="evenodd" d="M87.6861 12.4434C85.7422 12.4434 83.9034 13.4509 82.9577 15.063L71.662 33.8539C71.3467 34.3577 71.1891 34.9622 71.1366 35.5668C71.1366 36.6751 71.8196 37.2796 73.1856 37.2796L91.3112 37.33H91.4163C93.1501 37.33 94.7787 36.4736 95.6194 35.0126L98.1937 30.7305L98.2463 30.6801L100.978 26.0958L101.556 25.1386L107.02 16.0706C107.966 14.5089 106.81 12.5441 104.919 12.5441H87.6861V12.4434Z" fill="white"/>
</g>
<mask id="mask3_142_18275" style="mask-type:luminance" maskUnits="userSpaceOnUse" x="0" y="0" width="355" height="60">
<path d="M355 0H0V60H355V0Z" fill="white"/>
</mask>
<g mask="url(#mask3_142_18275)">
<path fill-rule="evenodd" clip-rule="evenodd" d="M115.111 1.71285C115.111 2.31738 114.901 2.87154 114.586 3.42569L112.011 7.70781C111.486 8.61461 110.435 9.16877 109.332 9.16877H89.8402C88.3691 9.16877 87.4235 7.65743 88.159 6.39798L89.9453 3.42569C90.5232 2.41814 91.3638 1.61209 92.4146 1.00756C93.3603 0.403023 94.411 0.0503778 95.5143 0H113.115C114.481 0 115.111 0.554156 115.111 1.71285Z" fill="white"/>
</g>
<mask id="mask4_142_18275" style="mask-type:luminance" maskUnits="userSpaceOnUse" x="0" y="0" width="355" height="60">
<path d="M355 0H0V60H355V0Z" fill="white"/>
</mask>
<g mask="url(#mask4_142_18275)">
<path fill-rule="evenodd" clip-rule="evenodd" d="M233.374 0H184.094C182.99 0.0503778 181.939 0.403023 180.994 1.00756C179.996 1.61209 179.155 2.41814 178.577 3.42569L157.404 37.733C156.826 38.6902 156.511 39.7985 156.511 40.9068C156.459 41.6121 156.669 42.267 157.036 42.8715L166.703 58.7406C166.914 59.1436 167.334 59.4458 167.807 59.4458C168.647 59.4458 169.435 58.8413 170.171 57.6322L180.889 40.6549C181.467 39.6474 182.307 38.8413 183.358 38.2368C184.251 37.6322 185.302 37.2796 186.405 37.2292H211.046C212.149 37.1788 213.252 36.8262 214.145 36.2217C215.144 35.6171 216.037 34.8111 216.615 33.8035L234.95 3.37531C235.266 2.87154 235.423 2.267 235.476 1.66247C235.423 0.554156 234.74 0 233.374 0ZM208.261 6.80101L194.076 30.4786C193.445 31.4358 192.605 32.2922 191.554 32.8967C190.661 33.5013 189.558 33.8539 188.454 33.9043C187.088 33.9043 186.405 33.3501 186.405 32.1914C186.458 31.5869 186.668 30.9824 186.983 30.529L201.221 6.85139C201.799 5.84383 202.64 5.03778 203.69 4.43325C204.636 3.82872 205.687 3.47607 206.79 3.42569C208.103 3.42569 208.786 3.97985 208.786 5.08816C208.734 5.6927 208.576 6.24685 208.261 6.80101ZM353.056 0H335.456C334.353 0.0503778 333.249 0.403023 332.356 1.00756C331.358 1.61209 330.517 2.41814 329.887 3.42569L313.6 30.4786C313.022 31.4861 312.181 32.2922 311.131 32.8967C310.185 33.5013 309.134 33.8539 308.031 33.9043C306.717 33.9043 306.035 33.3501 306.035 32.1914C306.035 31.5869 306.245 31.0327 306.56 30.4786L322.847 3.42569C323.162 2.92191 323.32 2.31738 323.372 1.71285C323.372 0.604534 322.689 0 321.376 0H303.775C302.672 0.0503778 301.569 0.403023 300.676 1.00756C299.625 1.61209 298.784 2.41814 298.206 3.42569L279.871 33.8539C279.555 34.3577 279.398 34.9622 279.345 35.5667C279.345 36.6751 280.028 37.2292 281.394 37.2292H299.52V37.2796H304.931C305.457 37.2796 305.929 37.4307 306.35 37.6322C306.77 37.8338 307.138 38.136 307.4 38.4887C307.663 38.7909 307.611 39.194 307.348 39.4458C307.295 39.4962 307.243 39.5466 307.19 39.5466C307.085 39.597 306.928 39.6474 306.823 39.6977H187.509C186.405 39.7481 185.302 40.1008 184.409 40.7053C183.358 41.2594 182.517 42.1159 181.939 43.1234L173.796 56.6751C173.481 57.1788 173.323 57.7834 173.271 58.3879C173.271 59.4962 173.901 60.1008 175.267 60.1008H317.383C318.486 60.0504 319.589 59.6977 320.482 59.0932C321.533 58.539 322.374 57.6826 322.952 56.6751L354.527 3.37531C354.842 2.87154 355 2.267 355.053 1.66247C355 0.554156 354.37 0 353.056 0Z" fill="white"/>
</g>
<mask id="mask5_142_18275" style="mask-type:luminance" maskUnits="userSpaceOnUse" x="0" y="0" width="355" height="60">
<path d="M355 0H0V60H355V0Z" fill="white"/>
</mask>
<g mask="url(#mask5_142_18275)">
<path fill-rule="evenodd" clip-rule="evenodd" d="M293.373 0H244.092C242.989 0.0503778 241.885 0.403023 240.992 1.00756C239.994 1.61209 239.101 2.41814 238.523 3.42569L234.425 10.1763C234.11 10.6801 233.952 11.2846 233.9 11.8892C233.9 12.9975 234.583 13.5516 235.949 13.602H253.601C254.705 13.5516 255.755 13.199 256.649 12.6448C257.647 12.0907 258.54 11.2343 259.118 10.2771L261.167 6.90176C261.797 5.94458 262.638 5.08816 263.636 4.48363C264.529 3.87909 265.58 3.52645 266.683 3.47607C267.997 3.47607 268.68 4.03023 268.68 5.18892C268.68 5.79345 268.522 6.34761 268.207 6.90176L264.162 13.6524C263.531 14.6096 262.691 15.4156 261.64 16.0202C260.747 16.6247 259.643 16.9773 258.54 17.0277H233.9C232.796 17.0781 231.746 17.4307 230.8 18.0353C229.802 18.6398 228.908 19.4458 228.278 20.4534L220.135 34.005C219.819 34.5088 219.662 35.1133 219.609 35.7179C219.609 36.8262 220.292 37.4307 221.658 37.4307H270.939C272.042 37.3804 273.093 37.0277 273.986 36.4232C275.037 35.869 275.878 35.0126 276.455 34.005L294.791 3.57683C295.106 3.07305 295.264 2.46851 295.317 1.86398C295.369 0.554156 294.686 0 293.373 0ZM258.015 23.6776L253.917 30.4786C253.339 31.4861 252.498 32.2922 251.447 32.8463C250.502 33.4509 249.451 33.8035 248.348 33.8539C247.034 33.8539 246.351 33.2997 246.351 32.1411C246.351 31.5365 246.561 30.9824 246.877 30.4282L250.975 23.6776C251.552 22.7204 252.393 21.864 253.391 21.2594C254.284 20.6549 255.388 20.3023 256.491 20.3023C257.857 20.3023 258.54 20.8564 258.54 21.9647C258.54 22.6196 258.33 23.1738 258.015 23.6776Z" fill="white"/>
</g>
</g>
<defs>
<clipPath id="clip0_142_18275">
<rect width="355" height="60" fill="white"/>
</clipPath>
</defs>
</svg>
