<svg width="27" height="23" viewBox="0 0 27 36" fill="none" xmlns="http://www.w3.org/2000/svg">
<path fill-rule="evenodd" clip-rule="evenodd" d="M12.4094 0.104343C10.0767 0.519568 8.02328 2.30614 7.2482 4.59487C6.97825 5.39197 6.92197 5.89665 6.92143 7.52698L6.9209 9.01942H5.03508C2.92758 9.01942 2.85521 9.03515 2.54867 9.55996C2.42515 9.77157 0.456898 30.5785 0.460944 31.6306C0.468225 33.5401 2.00022 35.432 3.90096 35.8786C4.58992 36.0405 22.7361 36.0405 23.4251 35.8786C25.3258 35.432 26.8578 33.5401 26.8651 31.6306C26.8692 30.5785 24.9009 9.77157 24.7774 9.55996C24.471 9.03542 24.3976 9.01942 22.298 9.01942H20.4192L20.3873 7.24606C20.352 5.28464 20.2982 4.9736 19.8109 3.91895C18.536 1.15962 15.4414 -0.435208 12.4094 0.104343ZM14.8584 2.4925C17.0392 3.09434 18.0557 4.66571 18.1375 7.56213L18.1786 9.01942H13.663H9.14742L9.18985 7.56213C9.21915 6.55252 9.26734 5.97539 9.34654 5.6835C10.0047 3.25831 12.4672 1.83258 14.8584 2.4925ZM6.92117 13.1454C6.92153 15.4975 7.0347 15.761 8.04458 15.761C9.05447 15.761 9.16764 15.4975 9.168 13.1454L9.16827 11.2668H13.663H18.1578L18.1581 13.1454C18.1584 15.4975 18.2716 15.761 19.2815 15.761C20.2914 15.761 20.4045 15.4975 20.4049 13.1454L20.4052 11.2668H21.564C22.2013 11.2668 22.7227 11.2921 22.7227 11.3229C22.7227 11.3538 23.1349 15.8968 23.6386 21.4186C24.1987 27.5597 24.5374 31.5808 24.5107 31.7741C24.3726 32.772 23.6018 33.5243 22.5636 33.6744C21.9921 33.7571 5.33398 33.7571 4.76242 33.6744C3.72423 33.5243 2.95347 32.772 2.81539 31.7741C2.78869 31.5808 3.12732 27.5597 3.68746 21.4186C4.19114 15.8968 4.60331 11.3538 4.60331 11.3229C4.60331 11.2921 5.12479 11.2668 5.76206 11.2668H6.9209L6.92117 13.1454Z" fill="#404B63"/>
</svg>
