<svg xmlns="http://www.w3.org/2000/svg" width="100" height="100" viewBox="0 0 100 100" fill="none">
  <mask id="mask0_1412_3495" style="mask-type:luminance" maskUnits="userSpaceOnUse" x="0" y="0" width="100" height="100">
    <path d="M0 0H100V100H0V0Z" fill="white"/>
  </mask>
  <g mask="url(#mask0_1412_3495)">
    <path d="M83.1125 97.0763H6.7584C5.38614 97.0763 4.30567 95.9052 4.41426 94.5372L6.18497 72.2695L70.0904 8.36398H76.4305C77.6578 8.36398 78.6779 9.30578 78.7744 10.529L85.4565 94.5372C85.5652 95.9052 84.4848 97.0763 83.1125 97.0763Z" fill="#D3E8FF"/>
    <path d="M79.2264 16.2134H62.2405L70.0897 8.36416H76.4297C77.6571 8.36416 78.6772 9.30596 78.7737 10.5292L79.2264 16.2134Z" fill="#BFDEFF"/>
    <path d="M74.1157 8.36449L5.84009 76.6401L7.92661 50.3967L49.9608 8.36449H74.1157Z" fill="#16569D"/>
    <path d="M37.9634 37.8195H23.3274C22.2161 37.8195 21.3149 36.9185 21.3149 35.807V12.7978C21.3149 11.6863 22.2161 10.7853 23.3274 10.7853H37.9634C39.0747 10.7853 39.9759 11.6863 39.9759 12.7978V35.807C39.9759 36.9185 39.0747 37.8195 37.9634 37.8195Z" fill="#2C7EDA"/>
    <path d="M74.1157 8.36416L66.2646 16.2134H42.1118L49.9608 8.36416H74.1157Z" fill="#1B4D84"/>
    <path d="M53.984 8.36375H13.4413C12.2147 8.36375 11.1942 9.30652 11.0969 10.529L7.57837 54.7694L53.984 8.36375Z" fill="#2C7EDA"/>
    <path d="M39.9749 12.7971V22.3707L24.5269 37.8186H23.3274C22.2165 37.8186 21.3149 36.917 21.3149 35.8061V12.7971C21.3149 11.6864 22.2165 10.7846 23.3274 10.7846H37.9624C39.0755 10.7846 39.9749 11.6864 39.9749 12.7971Z" fill="#BFDEFF"/>
    <path d="M46.1344 16.2131L53.984 8.36372H13.4413C12.2147 8.36372 11.1942 9.3063 11.0969 10.529L10.6448 16.2131H46.1344Z" fill="#16569D"/>
    <path d="M83.1114 97.075H76.1323C77.5051 97.075 78.5874 95.9058 78.477 94.5371L71.7971 10.5294C71.6995 9.30502 70.679 8.36284 69.4524 8.36284H76.4315C77.6581 8.36284 78.6786 9.30502 78.7741 10.5294L85.4561 94.5371C85.5643 95.9058 84.4842 97.075 83.1114 97.075Z" fill="#BFDEFF"/>
    <path d="M81.3917 11.2617H8.47954C7.30767 11.2617 6.35767 10.3117 6.35767 9.13978V2.1222C6.35767 0.95033 7.30767 0.000134468 8.47954 0.000134468H81.3917C82.5635 0.000134468 83.5135 0.95033 83.5135 2.1222V9.13978C83.5135 10.3117 82.5635 11.2617 81.3917 11.2617Z" fill="#1B6BC5"/>
    <path d="M83.513 2.12264V9.14003C83.513 10.3113 82.5624 11.2619 81.3911 11.2619H74.4692C75.6405 11.2619 76.5913 10.3113 76.5913 9.14003V2.12264C76.5913 0.949207 75.6405 0.000770569 74.4692 0.000770569H81.3911C82.5624 0.000770569 83.513 0.949207 83.513 2.12264Z" fill="#16569D"/>
    <path d="M92.2016 66.7603H47.4641C45.5911 66.7603 44.0725 65.2419 44.0725 63.3687C44.0725 56.6731 49.5004 51.2454 56.1959 51.2454H83.4698C90.1653 51.2454 95.5932 56.6731 95.5932 63.3687C95.5932 65.2419 94.0747 66.7603 92.2016 66.7603Z" fill="#FCA863"/>
    <path d="M95.5916 63.3687C95.5916 64.3048 95.2118 65.1526 94.5991 65.7653C93.984 66.3802 93.1362 66.7603 92.2 66.7603H86.0954C87.0315 66.7603 87.8793 66.3802 88.4944 65.7653C89.1071 65.1526 89.487 64.3048 89.487 63.3687C89.487 56.6739 84.0583 51.2452 77.3635 51.2452H83.4682C90.1629 51.2452 95.5916 56.6739 95.5916 63.3687Z" fill="#FC9744"/>
    <path d="M47.4641 87.751H92.2016C94.0747 87.751 95.5932 89.2693 95.5932 91.1424C95.5932 96.0344 91.6276 100 86.7356 100H52.9301C48.0381 100 44.0725 96.0344 44.0725 91.1424C44.0725 89.2693 45.5911 87.751 47.4641 87.751Z" fill="#FCA863"/>
    <path d="M95.5934 91.1434C95.5934 93.5897 94.6008 95.8032 93 97.4063C91.3948 99.0071 89.1811 99.9997 86.7348 99.9997H80.6301C83.0766 99.9997 85.2901 99.0071 86.8954 97.4063C88.4961 95.8032 89.4887 93.5897 89.4887 91.1434C89.4887 89.269 87.9694 87.752 86.0971 87.752H92.2018C94.0741 87.752 95.5934 89.269 95.5934 91.1434Z" fill="#FC9744"/>
    <path d="M90.4784 73.482H80.3241C78.468 73.482 76.9631 71.9773 76.9631 70.1211C76.9631 68.265 78.468 66.7603 80.3241 66.7603H90.4784C92.3344 66.7603 93.8393 68.265 93.8393 70.1211C93.8393 71.9773 92.3344 73.482 90.4784 73.482Z" fill="#6BC94D"/>
    <path d="M93.8376 70.1199C93.8376 71.0469 93.4622 71.8881 92.854 72.4963C92.2458 73.1045 91.4071 73.4821 90.4778 73.4821H85.5239C86.4509 73.4821 87.2921 73.1045 87.9003 72.4963C88.5085 71.8881 88.886 71.0469 88.886 70.1199C88.886 68.2658 87.3802 66.7602 85.5239 66.7602H90.4778C92.3341 66.7602 93.8376 68.2658 93.8376 70.1199Z" fill="#54C032"/>
    <path d="M81.6929 73.4814H57.9726C56.1165 73.4814 54.6118 71.9768 54.6118 70.1205C54.6118 68.2645 56.1165 66.7598 57.9726 66.7598H81.6929C83.5489 66.7598 85.0538 68.2645 85.0538 70.1205C85.0538 71.9768 83.5489 73.4814 81.6929 73.4814Z" fill="#845152"/>
    <path d="M85.0555 70.1199C85.0555 71.0468 84.6801 71.888 84.0698 72.4963C83.4614 73.1045 82.6227 73.482 81.6934 73.482H76.7395C77.6665 73.482 78.5077 73.1045 79.1159 72.4963C79.7241 71.888 80.1016 71.0468 80.1016 70.1199C80.1016 68.2658 78.5959 66.7601 76.7395 66.7601H81.6934C83.5497 66.7601 85.0555 68.2658 85.0555 70.1199Z" fill="#6F4545"/>
    <path d="M59.3405 73.4821H49.1862C47.3301 73.4821 45.8254 71.9774 45.8254 70.1211C45.8254 68.2651 47.3301 66.7604 49.1862 66.7604H59.3405C61.1965 66.7604 62.7014 68.2651 62.7014 70.1211C62.7014 71.9774 61.1965 73.4821 59.3405 73.4821Z" fill="#99D880"/>
    <path d="M62.7023 70.1196C62.7023 71.0466 62.327 71.8878 61.7166 72.496C61.1082 73.1042 60.2695 73.4818 59.3402 73.4818H54.3887C55.318 73.4818 56.1566 73.1042 56.765 72.496C57.373 71.8878 57.7484 71.0466 57.7484 70.1196C57.7484 68.2655 56.2449 66.7599 54.3887 66.7599H59.3402C61.1965 66.7599 62.7023 68.2655 62.7023 70.1196Z" fill="#6BC94D"/>
    <path d="M89.9113 87.7509H49.7529C47.4861 87.7509 45.6484 85.9132 45.6484 83.6464C45.6484 81.3794 47.4861 79.5417 49.7529 79.5417H89.9113C92.1781 79.5417 94.016 81.3794 94.016 83.6464C94.016 85.9132 92.1781 87.7509 89.9113 87.7509Z" fill="#1B6BC5"/>
    <path d="M94.0166 83.6472C94.0166 84.78 93.5576 85.8064 92.8137 86.548C92.0721 87.2919 91.0457 87.7509 89.9107 87.7509H84.959C86.0918 87.7509 87.1184 87.2919 87.86 86.548C88.6039 85.8064 89.0627 84.78 89.0627 83.6472C89.0627 81.3794 87.2246 79.5413 84.959 79.5413H89.9107C92.1783 79.5413 94.0166 81.3794 94.0166 83.6472Z" fill="#16569D"/>
    <path d="M92.6953 73.482H46.9691C46.2397 73.482 45.6484 74.0732 45.6484 74.8027V78.2215C45.6484 78.9508 46.2397 79.5422 46.9691 79.5422H62.4957C64.059 79.5422 65.3264 80.8096 65.3264 82.3728V85.701C65.3264 87.6596 66.8314 89.3449 68.7881 89.4371C70.877 89.5353 72.6014 87.8709 72.6014 85.8037V84.7135C72.6014 83.0773 73.9277 81.7512 75.5637 81.7512C77.1996 81.7512 78.5258 83.0773 78.5258 84.7135V90.5685C78.5258 92.5777 80.1545 94.2062 82.1633 94.2062C84.1721 94.2062 85.801 92.5777 85.801 90.5685V82.3728C85.801 80.8096 87.0682 79.5422 88.6315 79.5422H92.6953C93.4246 79.5422 94.016 78.9508 94.016 78.2215V74.8027C94.016 74.0732 93.4246 73.482 92.6953 73.482Z" fill="#FCDD45"/>
    <path d="M94.0161 74.8021V78.2206C94.0161 78.9511 93.4237 79.5411 92.6956 79.5411H88.6303C87.068 79.5411 85.7997 80.8095 85.7997 82.3718V90.5681C85.7997 91.5718 85.3926 92.4829 84.7346 93.1412C84.0768 93.799 83.1678 94.206 82.1618 94.206C81.1872 94.206 80.3008 93.8216 79.6497 93.1976C79.6702 93.1794 79.6905 93.1591 79.7086 93.1412C80.3665 92.4829 80.7735 91.5718 80.7735 90.5681V82.3718C80.7735 80.8095 82.0418 79.5411 83.6042 79.5411H87.6694C88.3975 79.5411 88.9899 78.9511 88.9899 78.2206V74.8021C88.9899 74.0718 88.3975 73.4818 87.6694 73.4818H92.6956C93.4237 73.4818 94.0161 74.0718 94.0161 74.8021Z" fill="#F8C52D"/>
    <path d="M20.485 84.9576H14.3266C13.4932 84.9576 12.8176 84.282 12.8176 83.4484C12.8176 82.615 13.4932 81.9394 14.3266 81.9394H20.485C21.3184 81.9394 21.9942 82.615 21.9942 83.4484C21.9942 84.282 21.3184 84.9576 20.485 84.9576Z" fill="#1B6BC5"/>
    <path d="M30.6366 90.0146H14.3266C13.4932 90.0146 12.8176 89.3391 12.8176 88.5055C12.8176 87.6721 13.4932 86.9965 14.3266 86.9965H30.6366C31.47 86.9965 32.1458 87.6721 32.1458 88.5055C32.1458 89.3391 31.47 90.0146 30.6366 90.0146Z" fill="#1B6BC5"/>
    <path d="M37.9634 32.6648H23.3274C22.2161 32.6648 21.3149 31.7638 21.3149 30.6523V7.64312C21.3149 6.5316 22.2161 5.63062 23.3274 5.63062H37.9634C39.0747 5.63062 39.9759 6.5316 39.9759 7.64312V30.6523C39.9759 31.7638 39.0747 32.6648 37.9634 32.6648Z" fill="#F8F6F7"/>
    <path d="M39.9756 7.64373V30.6529C39.9756 31.7637 39.0762 32.6652 37.9631 32.6652H33.4954C34.6084 32.6652 35.5079 31.7637 35.5079 30.6529V7.64373C35.5079 6.53279 34.6084 5.63123 33.4954 5.63123H37.9631C39.0762 5.63123 39.9756 6.53279 39.9756 7.64373Z" fill="#E5E1E5"/>
    <path d="M30.1545 20.2629H26.1782C25.3448 20.2629 24.6692 19.5873 24.6692 18.7537C24.6692 17.9203 25.3448 17.2447 26.1782 17.2447H30.1545C30.9879 17.2447 31.6635 17.9203 31.6635 18.7537C31.6635 19.5873 30.9879 20.2629 30.1545 20.2629Z" fill="#D1D1D1"/>
    <path d="M35.1149 20.2732C34.2815 20.2732 33.606 19.5976 33.606 18.764V18.7433C33.606 17.9099 34.2815 17.2341 35.1149 17.2341C35.9483 17.2341 36.6241 17.9099 36.6241 18.7433V18.764C36.6241 19.5976 35.9483 20.2732 35.1149 20.2732Z" fill="#D1D1D1"/>
    <path d="M30.1545 25.3687H26.1782C25.3448 25.3687 24.6692 24.6931 24.6692 23.8597C24.6692 23.0263 25.3448 22.3505 26.1782 22.3505H30.1545C30.9879 22.3505 31.6635 23.0263 31.6635 23.8597C31.6635 24.6931 30.9879 25.3687 30.1545 25.3687Z" fill="#D1D1D1"/>
    <path d="M35.1149 25.3784C34.2815 25.3784 33.606 24.7028 33.606 23.8694V23.8485C33.606 23.0151 34.2815 22.3396 35.1149 22.3396C35.9483 22.3396 36.6241 23.0151 36.6241 23.8485V23.8694C36.6241 24.7028 35.9483 25.3784 35.1149 25.3784Z" fill="#D1D1D1"/>
    <path d="M32.634 12.771H28.6579C27.8245 12.771 27.1487 12.0954 27.1487 11.262C27.1487 10.4286 27.8245 9.75283 28.6579 9.75283H32.634C33.4674 9.75283 34.1432 10.4286 34.1432 11.262C34.1432 12.0954 33.4674 12.771 32.634 12.771Z" fill="#D1D1D1"/>
  </g>
</svg>