<svg width="18" height="17" viewBox="0 0 18 17" fill="none" xmlns="http://www.w3.org/2000/svg">
<g clip-path="url(#clip0_1352_2138)">
<path d="M3.44661 12.75C3.44661 12.3583 3.76395 12.0417 4.15495 12.0417H8.40495C8.79595 12.0417 9.11328 12.3583 9.11328 12.75C9.11328 13.1417 8.79595 13.4583 8.40495 13.4583H4.15495C3.76395 13.4583 3.44661 13.1417 3.44661 12.75ZM4.15495 10.625H8.40495C8.79595 10.625 9.11328 10.3084 9.11328 9.91667C9.11328 9.52496 8.79595 9.20833 8.40495 9.20833H4.15495C3.76395 9.20833 3.44661 9.52496 3.44661 9.91667C3.44661 10.3084 3.76395 10.625 4.15495 10.625ZM17.6133 3.54167V4.95833C17.6133 6.12992 16.6599 7.08333 15.4883 7.08333H11.9466V13.8125C11.9466 15.5699 10.5165 17 8.75911 17H3.80078C2.04341 17 0.613281 15.5699 0.613281 13.8125V3.54167C0.613281 1.58879 2.20207 0 4.15495 0H14.0716C16.0245 0 17.6133 1.58879 17.6133 3.54167ZM10.5299 7.08333H2.02995V13.8125C2.02995 14.7893 2.8247 15.5833 3.80078 15.5833H8.75911C9.7352 15.5833 10.5299 14.7893 10.5299 13.8125V7.08333ZM16.1966 3.54167C16.1966 2.37008 15.2432 1.41667 14.0716 1.41667H4.15495C2.98336 1.41667 2.02995 2.37008 2.02995 3.54167V5.66667H15.4883C15.8786 5.66667 16.1966 5.34933 16.1966 4.95833V3.54167ZM14.4109 2.47917H10.9613C10.4754 2.47917 10.2324 3.06638 10.576 3.40992L12.3008 4.9895C12.514 5.20271 12.8589 5.20271 13.0722 4.9895L14.7969 3.40992C15.1405 3.06638 14.8961 2.47917 14.4109 2.47917Z" fill="#010E16"/>
</g>
<defs>
<clipPath id="clip0_1352_2138">
<rect width="17" height="17" fill="white" transform="translate(0.613281)"/>
</clipPath>
</defs>
</svg>
