<svg width="18" height="17" viewBox="0 0 18 17" fill="none" xmlns="http://www.w3.org/2000/svg">
<g clip-path="url(#clip0_1352_2159)">
<path d="M9.11329 0C7.43214 0 5.78876 0.498516 4.39094 1.43251C2.99312 2.3665 1.90365 3.69402 1.26031 5.24719C0.616964 6.80036 0.448636 8.50943 0.77661 10.1583C1.10458 11.8071 1.91413 13.3217 3.10288 14.5104C4.29162 15.6992 5.80618 16.5087 7.45502 16.8367C9.10386 17.1646 10.8129 16.9963 12.3661 16.353C13.9193 15.7096 15.2468 14.6202 16.1808 13.2223C17.1148 11.8245 17.6133 10.1811 17.6133 8.5C17.6108 6.24641 16.7145 4.08582 15.121 2.49228C13.5275 0.898753 11.3669 0.00243743 9.11329 0ZM9.11329 15.5833C7.71233 15.5833 6.34284 15.1679 5.178 14.3896C4.01315 13.6112 3.10526 12.505 2.56914 11.2107C2.03302 9.91637 1.89274 8.49214 2.16606 7.11811C2.43937 5.74408 3.11399 4.48195 4.10461 3.49133C5.09523 2.50071 6.35736 1.82608 7.7314 1.55277C9.10543 1.27946 10.5296 1.41973 11.824 1.95585C13.1183 2.49197 14.2245 3.39986 15.0029 4.56471C15.7812 5.72956 16.1966 7.09905 16.1966 8.5C16.1946 10.378 15.4476 12.1785 14.1197 13.5064C12.7917 14.8343 10.9913 15.5813 9.11329 15.5833Z" fill="#010E16"/>
<path d="M9.62099 3.5863C9.21252 3.51187 8.79268 3.52813 8.39118 3.63392C7.98968 3.73972 7.61635 3.93246 7.29758 4.19851C6.97882 4.46456 6.72243 4.79742 6.54655 5.17353C6.37067 5.54964 6.2796 5.9598 6.27979 6.375C6.27979 6.56287 6.35441 6.74303 6.48725 6.87587C6.62009 7.00871 6.80026 7.08334 6.98812 7.08334C7.17598 7.08334 7.35615 7.00871 7.48899 6.87587C7.62182 6.74303 7.69645 6.56287 7.69645 6.375C7.69627 6.16659 7.74208 5.96071 7.8306 5.77204C7.91913 5.58337 8.04819 5.41655 8.20859 5.28348C8.36899 5.15042 8.55677 5.05438 8.75854 5.00221C8.96032 4.95005 9.17112 4.94305 9.37591 4.98171C9.65573 5.03603 9.91301 5.17253 10.1149 5.37377C10.3167 5.57501 10.4541 5.83186 10.5092 6.1115C10.565 6.40504 10.5265 6.70868 10.3993 6.97903C10.2721 7.24937 10.0626 7.47257 9.80091 7.61671C9.36753 7.86779 9.00941 8.23049 8.76386 8.66703C8.51831 9.10357 8.39431 9.59796 8.40479 10.0987V10.625C8.40479 10.8129 8.47941 10.993 8.61225 11.1259C8.74509 11.2587 8.92526 11.3333 9.11312 11.3333C9.30098 11.3333 9.48115 11.2587 9.61399 11.1259C9.74682 10.993 9.82145 10.8129 9.82145 10.625V10.0987C9.81256 9.85222 9.86877 9.60774 9.98442 9.38988C10.1001 9.17202 10.2711 8.98847 10.4802 8.85771C10.9934 8.57585 11.4067 8.14191 11.6632 7.61558C11.9197 7.08925 12.0068 6.49638 11.9126 5.9185C11.8185 5.34062 11.5475 4.80611 11.1372 4.38848C10.7268 3.97085 10.1971 3.69061 9.62099 3.5863Z" fill="#010E16"/>
<path d="M9.82145 12.75C9.82145 12.3588 9.50432 12.0417 9.11312 12.0417C8.72192 12.0417 8.40479 12.3588 8.40479 12.75C8.40479 13.1412 8.72192 13.4583 9.11312 13.4583C9.50432 13.4583 9.82145 13.1412 9.82145 12.75Z" fill="#010E16"/>
</g>
<defs>
<clipPath id="clip0_1352_2159">
<rect width="17" height="17" fill="white" transform="translate(0.613281)"/>
</clipPath>
</defs>
</svg>
