<svg width="17" height="18" viewBox="0 0 17 18" fill="none" xmlns="http://www.w3.org/2000/svg">
<path d="M8.09265 6.76995C7.90562 6.76995 7.72626 6.69565 7.59401 6.56341C7.46176 6.43116 7.38747 6.2518 7.38747 6.06477V3.94923C7.38747 3.38815 7.16458 2.85006 6.76784 2.45332C6.3711 2.05657 5.833 1.83369 5.27193 1.83369H3.5259C2.96482 1.83369 2.42673 2.05657 2.02999 2.45332C1.63325 2.85006 1.41036 3.38815 1.41036 3.94923V13.8218C1.41036 14.3828 1.63325 14.9209 2.02999 15.3177C2.42673 15.7144 2.96482 15.9373 3.5259 15.9373H5.27193C5.833 15.9373 6.3711 15.7144 6.76784 15.3177C7.16458 14.9209 7.38747 14.3828 7.38747 13.8218V11.7062C7.38747 11.5192 7.46176 11.3398 7.59401 11.2076C7.72626 11.0753 7.90562 11.001 8.09265 11.001C8.27967 11.001 8.45904 11.0753 8.59129 11.2076C8.72353 11.3398 8.79783 11.5192 8.79783 11.7062V13.8218C8.79671 14.7565 8.42487 15.6527 7.76388 16.3137C7.10289 16.9747 6.20671 17.3465 5.27193 17.3477H3.5259C2.59112 17.3465 1.69494 16.9747 1.03395 16.3137C0.372957 15.6527 0.00111973 14.7565 0 13.8218L0 3.94923C0.00111973 3.01445 0.372957 2.11827 1.03395 1.45728C1.69494 0.796284 2.59112 0.424448 3.5259 0.423328H5.27193C6.20671 0.424448 7.10289 0.796284 7.76388 1.45728C8.42487 2.11827 8.79671 3.01445 8.79783 3.94923V6.06477C8.79783 6.2518 8.72353 6.43116 8.59129 6.56341C8.45904 6.69565 8.27967 6.76995 8.09265 6.76995Z" fill="#FF5755"/>
<path d="M16.1248 10.3811L12.8909 13.615C12.8258 13.6824 12.748 13.7361 12.662 13.7731C12.576 13.81 12.4834 13.8295 12.3898 13.8303C12.2962 13.8311 12.2033 13.8133 12.1166 13.7778C12.03 13.7424 11.9512 13.69 11.885 13.6238C11.8188 13.5576 11.7665 13.4788 11.731 13.3922C11.6955 13.3055 11.6777 13.2126 11.6785 13.119C11.6793 13.0254 11.6988 12.9328 11.7357 12.8468C11.7727 12.7608 11.8264 12.683 11.8938 12.6179L14.8992 9.61173L4.23057 9.59058C4.04355 9.59058 3.86418 9.51628 3.73193 9.38403C3.59969 9.25179 3.52539 9.07242 3.52539 8.8854C3.52539 8.69837 3.59969 8.519 3.73193 8.38676C3.86418 8.25451 4.04355 8.18021 4.23057 8.18021L14.9408 8.20208L11.8924 5.15288C11.825 5.08783 11.7713 5.01001 11.7343 4.92398C11.6974 4.83794 11.6779 4.74541 11.6771 4.65178C11.6763 4.55814 11.6941 4.46529 11.7296 4.37862C11.765 4.29196 11.8174 4.21322 11.8836 4.14701C11.9498 4.0808 12.0286 4.02844 12.1152 3.99298C12.2019 3.95752 12.2947 3.93968 12.3884 3.94049C12.482 3.94131 12.5745 3.96076 12.6606 3.99772C12.7466 4.03468 12.8244 4.0884 12.8895 4.15575L16.1234 7.38971C16.5202 7.78624 16.7433 8.32414 16.7435 8.8851C16.7438 9.44607 16.5213 9.98417 16.1248 10.3811Z" fill="#FF5755"/>
</svg>
