<svg width="18" height="17" viewBox="0 0 18 17" fill="none" xmlns="http://www.w3.org/2000/svg">
<g clip-path="url(#clip0_1352_2146)">
<path d="M6.98828 8.5C9.33216 8.5 11.2383 6.59388 11.2383 4.25C11.2383 1.90613 9.33216 0 6.98828 0C4.64441 0 2.73828 1.90613 2.73828 4.25C2.73828 6.59388 4.64441 8.5 6.98828 8.5ZM6.98828 1.41667C8.55087 1.41667 9.82162 2.68742 9.82162 4.25C9.82162 5.81258 8.55087 7.08333 6.98828 7.08333C5.4257 7.08333 4.15495 5.81258 4.15495 4.25C4.15495 2.68742 5.4257 1.41667 6.98828 1.41667ZM8.22787 11.4892C7.82553 11.3857 7.40832 11.3333 6.98828 11.3333C4.25411 11.3333 2.02995 13.5575 2.02995 16.2917C2.02995 16.6827 1.71261 17 1.32161 17C0.930615 17 0.613281 16.6827 0.613281 16.2917C0.613281 12.7769 3.47353 9.91667 6.98828 9.91667C7.52803 9.91667 8.06424 9.98396 8.58203 10.1178C8.96099 10.2156 9.18836 10.6016 9.09132 10.9806C8.99428 11.3595 8.60966 11.5869 8.22857 11.4899L8.22787 11.4892ZM16.9907 8.41429C16.1874 7.61104 14.7877 7.61104 13.9852 8.41429L9.23441 13.1651C8.69961 13.6999 8.40424 14.4118 8.40424 15.169V16.2924C8.40424 16.6834 8.72157 17.0007 9.11257 17.0007H10.236C10.9932 17.0007 11.7044 16.7053 12.2392 16.1705L16.99 11.4198C17.3916 11.0181 17.6126 10.4848 17.6126 9.91667C17.6126 9.34858 17.3916 8.81521 16.9907 8.41429ZM15.9884 10.4175L11.2369 15.1683C10.9698 15.436 10.6142 15.5833 10.2353 15.5833H9.8202V15.1683C9.8202 14.79 9.96753 14.4344 10.2353 14.1667L14.9868 9.41588C15.2538 9.14813 15.7206 9.14813 15.9884 9.41588C16.1222 9.54904 16.1959 9.72683 16.1959 9.91667C16.1959 10.1065 16.1222 10.2836 15.9884 10.4175Z" fill="#010E16"/>
</g>
<defs>
<clipPath id="clip0_1352_2146">
<rect width="17" height="17" fill="white" transform="translate(0.613281)"/>
</clipPath>
</defs>
</svg>
