<svg width="14" height="20" viewBox="0 0 14 20" fill="none" xmlns="http://www.w3.org/2000/svg">
<path d="M13.6133 6.67636C13.6156 5.59786 13.3623 4.53492 12.8754 3.57886C12.3884 2.6228 11.6822 1.8022 10.8175 1.18759C9.95276 0.572983 8.95538 0.182729 7.91103 0.0503645C6.86668 -0.0820005 5.80659 0.0474814 4.82184 0.427685C3.83709 0.807888 2.95713 1.42744 2.25757 2.23312C1.55801 3.03879 1.05977 4.00649 0.805653 5.05308C0.551536 6.09966 0.549145 7.19382 0.798685 8.24156C1.04822 9.2893 1.54223 10.2593 2.23827 11.0682V17.9182C2.23826 18.3103 2.34634 18.6945 2.55005 19.0265C2.75376 19.3585 3.04482 19.6247 3.38971 19.7946C3.7346 19.9644 4.11929 20.031 4.49947 19.9866C4.87966 19.9422 5.23988 19.7887 5.53864 19.5436L7.11327 18.2512L8.68789 19.542C8.98655 19.7869 9.34661 19.9404 9.72665 19.9849C10.1067 20.0294 10.4913 19.9629 10.8361 19.7933C11.1809 19.6236 11.472 19.3576 11.6758 19.0259C11.8797 18.6942 11.988 18.3102 11.9883 17.9182V11.0682C13.035 9.8567 13.613 8.29455 13.6133 6.67636ZM7.11327 1.68001C8.07745 1.68001 9.01998 1.97304 9.82167 2.52205C10.6234 3.07105 11.2482 3.85138 11.6172 4.76434C11.9862 5.6773 12.0827 6.6819 11.8946 7.6511C11.7065 8.6203 11.2422 9.51056 10.5604 10.2093C9.87863 10.9081 9.00999 11.3839 8.06433 11.5767C7.11867 11.7695 6.13847 11.6706 5.24768 11.2924C4.35689 10.9142 3.59552 10.2738 3.05985 9.45219C2.52418 8.63054 2.23827 7.66455 2.23827 6.67636C2.23956 5.35165 2.75359 4.08158 3.66755 3.14487C4.58151 2.20816 5.82073 1.68133 7.11327 1.68001ZM10.1333 18.2912C10.0646 18.3261 9.98747 18.34 9.91124 18.3311C9.83501 18.3223 9.76289 18.2911 9.70352 18.2413L7.11327 16.117L4.52383 18.2413C4.46421 18.2903 4.3923 18.3211 4.31636 18.3302C4.24042 18.3392 4.16353 18.3261 4.09454 18.2923C4.02554 18.2586 3.96724 18.2056 3.92633 18.1394C3.88542 18.0732 3.86356 17.9965 3.86327 17.9182V12.4372C4.84962 13.0272 5.97119 13.3381 7.11327 13.3381C8.25534 13.3381 9.37692 13.0272 10.3633 12.4372V17.9182C10.3642 17.9965 10.3429 18.0733 10.3021 18.1395C10.2613 18.2057 10.2027 18.2584 10.1333 18.2912Z" fill="#010E16"/>
</svg>
